<?xml version="1.0" encoding="UTF-8" standalone="no"?>
<svg viewBox="0 0 100 100" version="1.2" xmlns="http://www.w3.org/2000/svg">
  <path d="M58.54,22a5,5,0,0,0,0-7.07L45.1,1.46a5,5,0,0,0-7.07,0L11.25,28.25,1.46,38a5,5,0,0,0,0,7.07L14.9,58.54a5,5,0,0,0,2.71,1.38A1,1,0,0,0,18,60H50.21a1,1,0,0,0,0-2H22.5l2-2H45a1,1,0,0,0,0-2H26.51l2-2H45a1,1,0,0,0,0-2H30.51l1.25-1.24ZM41.29,5.29a1,1,0,0,1,1.42,0l12,12a1,1,0,0,1,0,1.42,1,1,0,0,1-1.42,0l-12-12A1,1,0,0,1,41.29,5.29ZM20.55,57.12a3.06,3.06,0,0,1-4.23,0L2.88,43.68a3,3,0,0,1,0-4.23L12,30.37,29.63,48Z"/>
</svg>
