<?xml version="1.0" encoding="UTF-8" standalone="no"?>
<svg viewBox="0 0 100 100" version="1.2" xmlns="http://www.w3.org/2000/svg">
    <path d="M86.232,24.407l-1.436-1.435l0.175-0.175c0.094-0.094,0.146-0.221,0.146-0.354s-0.053-0.26-0.146-0.354l-7.062-7.061   c-0.195-0.195-0.512-0.195-0.707,0l-0.175,0.175l-1.435-1.435c-1.283-1.284-3.522-1.284-4.808,0L55.199,29.354   c-0.195,0.195-0.195,0.511-0.001,0.706L23.715,61.544c-0.04,0.04-0.066,0.087-0.09,0.135c-0.004,0.007-0.01,0.013-0.014,0.021   c-0.037,0.086-0.043,0.182-0.028,0.279c0.002,0.011-0.005,0.02-0.003,0.031c0.02,0.085,1.885,8.553-2.358,12.796   c-0.195,0.195-0.195,0.512,0,0.707l0.099,0.099l-4.329,4.089c-0.148,0.141-0.196,0.357-0.121,0.548   c0.076,0.19,0.26,0.315,0.465,0.315h4.942c0.133,0,0.26-0.053,0.354-0.146l1.747-1.748l0.109,0.109   c0.098,0.098,0.226,0.146,0.354,0.146s0.256-0.049,0.354-0.146c2.306-2.306,5.858-2.79,8.433-2.79c2.437,0,4.345,0.428,4.363,0.432   c0.01,0.002,0.02-0.005,0.03-0.003c0.027,0.005,0.053,0.016,0.081,0.016c0.068,0,0.135-0.016,0.199-0.044   c0.005-0.002,0.01-0.007,0.015-0.01c0.05-0.024,0.099-0.052,0.14-0.093L69.94,44.802c0.094,0.093,0.22,0.146,0.352,0.146   c0.133,0,0.26-0.053,0.354-0.146l15.587-15.587C87.558,27.889,87.558,25.732,86.232,24.407z M83.911,22.443l-0.528,0.528   l-16.93,16.93l-0.354,0.354l-0.354,0.353v0l-0.471,0.471l-0.354,0.354l-1.08,1.08c-0.704,0.705-1.933,0.704-2.636,0l-3.719-3.719   c-0.727-0.727-0.727-1.908,0-2.635l1.08-1.08l0.354-0.354l0.471-0.471h0l0.353-0.353l0.354-0.354l16.929-16.93l0.528-0.528   L83.911,22.443z M56.102,31.906l2.112,2.112l-0.354,0.354l-2.112-2.112c-0.098-0.098-0.098-0.256,0-0.354   S56.004,31.809,56.102,31.906z M67.397,43.909l-1.769-1.769l0.354-0.354l1.946,1.946c0.098,0.098,0.098,0.256,0,0.354l-28.64,28.64   c-0.049,0.049-0.112,0.073-0.177,0.073s-0.128-0.024-0.177-0.073c-0.098-0.098-0.098-0.256,0-0.354L67.397,43.909z M37.092,74.922   c-0.005,0.005-0.013,0.003-0.019,0.008c-0.026,0.023-0.057,0.027-0.089,0.037c-0.024,0.007-0.043,0.028-0.068,0.028   c-0.007,0-0.012-0.007-0.018-0.008c-0.007-0.001-0.013,0.006-0.02,0.005c-0.154-0.024-0.321-0.046-0.488-0.068   c-3.234-0.419-8.784-0.395-11.313,2.136c-0.049,0.049-0.112,0.073-0.177,0.073s-0.128-0.024-0.177-0.073   c-0.098-0.098-0.098-0.256,0-0.354c2.817-2.817,8.591-2.599,11.101-2.348c0.145,0.014,0.273,0.029,0.395,0.043L25.839,64.022   c-0.098-0.098-0.098-0.256,0-0.354c0,0,0,0,0,0c0.098-0.097,0.256-0.097,0.353,0l10.899,10.899   c0.005,0.005,0.003,0.013,0.008,0.018c0.022,0.025,0.026,0.055,0.036,0.087c0.01,0.031,0.024,0.057,0.022,0.09   c0,0.007,0.006,0.012,0.005,0.02c-0.004,0.027-0.028,0.042-0.04,0.066C37.11,74.873,37.112,74.902,37.092,74.922   C37.092,74.922,37.092,74.922,37.092,74.922z M71.492,14.475c0.905-0.906,2.486-0.907,3.394,0l1.435,1.435L59.392,32.84   l-3.132-3.132L71.492,14.475z M22.071,79.563h-3.478l3.436-3.244l0.958,0.958l-1.149,1.149c-0.098,0.098-0.098,0.256,0,0.354   c0.049,0.049,0.112,0.073,0.177,0.073s0.128-0.024,0.177-0.073l1.149-1.149l0.331,0.331L22.071,79.563z M85.525,28.507   L70.292,43.741l-0.717-0.717l14.986-14.986c0.674-0.673,0.65-1.792-0.052-2.495c-0.098-0.098-0.256-0.098-0.354,0   s-0.098,0.256,0,0.354c0.507,0.507,0.53,1.309,0.052,1.788L69.222,42.671l-2.062-2.062l16.93-16.93l1.436,1.435   C86.461,26.049,86.461,27.572,85.525,28.507z M81.675,22.42L65.323,38.772l-0.354,0.354l-0.354,0.353l-0.471,0.471l-0.354,0.354l-0.537,0.537   c-0.098,0.098-0.098,0.256,0,0.354c0.049,0.049,0.112,0.073,0.177,0.073s0.128-0.024,0.177-0.073l0.537-0.537l0.354-0.354   l0.471-0.471l0.354-0.353l0.354-0.354l16.528-16.528c0.098-0.098,0.098-0.256,0-0.354l-4.336-4.336   c-0.098-0.098-0.256-0.098-0.354,0s-0.098,0.256,0,0.354L81.675,22.42z"/>
</svg>
