<?xml version="1.0" encoding="UTF-8" standalone="no"?>
<svg viewBox="0 0 100 100" version="1.2" xmlns="http://www.w3.org/2000/svg">
    <path d="M 49.875 18 A 1.0001 1.0001 0 0 0 49.28125 18.28125 L 40.28125 27.28125 A 1.0001 1.0001 0 0 0 41 29 L 59 29 A 1.0001 1.0001 0 0 0 59.71875 27.28125 L 50.71875 18.28125 A 1.0001 1.0001 0 0 0 49.875 18 z M 50 20.4375 L 56.5625 27 L 43.4375 27 L 50 20.4375 z M 27.875 40 A 1.0001 1.0001 0 0 0 27.28125 40.28125 L 18.28125 49.28125 A 1.0001 1.0001 0 0 0 18.28125 50.71875 L 27.28125 59.71875 A 1.0001 1.0001 0 0 0 29 59 L 29 41 A 1.0001 1.0001 0 0 0 27.875 40 z M 71.875 40 A 1.0001 1.0001 0 0 0 71 41 L 71 59 A 1.0001 1.0001 0 0 0 72.71875 59.71875 L 81.71875 50.71875 A 1.0001 1.0001 0 0 0 81.71875 49.28125 L 72.71875 40.28125 A 1.0001 1.0001 0 0 0 71.875 40 z M 27 43.4375 L 27 56.5625 L 20.4375 50 L 27 43.4375 z M 73 43.4375 L 79.5625 50 L 73 56.5625 L 73 43.4375 z M 50 44 C 46.698135 44 44 46.69812 44 50 C 44 53.3018 46.69813 56 50 56 C 53.30187 56 56 53.3018 56 50 C 56 46.69812 53.301865 44 50 44 z M 50 46 C 52.220983 46 54 47.779 54 50 C 54 52.221 52.220978 54 50 54 C 47.779022 54 46 52.221 46 50 C 46 47.779 47.779017 46 50 46 z M 40.8125 71 A 1.0001 1.0001 0 0 0 40.28125 72.71875 L 49.28125 81.71875 A 1.0001 1.0001 0 0 0 50.71875 81.71875 L 59.71875 72.71875 A 1.0001 1.0001 0 0 0 59 71 L 41 71 A 1.0001 1.0001 0 0 0 40.90625 71 A 1.0001 1.0001 0 0 0 40.8125 71 z M 43.4375 73 L 56.5625 73 L 50 79.5625 L 43.4375 73 z"/>
</svg>
