<?xml version="1.0" encoding="UTF-8" standalone="no"?>
<svg viewBox="0 0 100 100" version="1.2" xmlns="http://www.w3.org/2000/svg">
  <path d="M46.892,42.019L57.98,53.107c-6.739,6.74-38.12,38.121-39.874,39.875c-1.966,1.966-2.843,0.863-2.843,0.863l-9.109-9.109   c0,0-0.815-1.164,0.863-2.843C8.516,80.395,40.125,48.786,46.892,42.019z M98.164,13.554c1.945-1.945,2.971-8.413-0.167-11.55   c-3.138-3.138-9.605-2.114-11.552-0.168l-0.108,0.108l11.718,11.718L98.164,13.554z M83.959,3.069L49.915,37.113   c-0.839,0.839-1.347,1.882-1.532,2.968l11.536,11.536c1.087-0.186,2.129-0.693,2.969-1.532L96.93,16.041L83.959,3.069z    M0.104,99.145c0,0-0.228,0.543-0.009,0.761c0.218,0.218,0.76-0.01,0.76-0.01l3.454-1.621l-2.583-2.583L0.104,99.145z    M2.181,91.884c-0.905,1.841-0.218,2.661-0.218,2.661l3.492,3.492c0,0,0.815,0.547,2.586-0.293   c1.771-0.842,5.935-3.397,5.935-3.397l-8.323-8.323C5.653,86.023,3.086,90.043,2.181,91.884z M89.313,26.804   c0,0,9.098,0.328-24.415,24.416c0,0,2.181,1.391,4.221,0.162c2.041-1.228,35.255-20.292,29.384-33.768L89.313,26.804z"/>
</svg>
