<?xml version="1.0" encoding="UTF-8" standalone="no"?>
<svg viewBox="0 0 16 16" version="1.2" xmlns="http://www.w3.org/2000/svg">
  <path d="M15.5,7.5h-1.479C13.779,4.564,11.436,2.22,8.5,1.979V0.5C8.5,0.224,8.276,0,8,0S7.5,0.224,7.5,0.5v1.479  C4.564,2.22,2.22,4.565,1.979,7.5H0.5C0.224,7.5,0,7.724,0,8s0.224,0.5,0.5,0.5h1.479c0.242,2.936,2.586,5.279,5.521,5.521V15.5  C7.5,15.775,7.724,16,8,16s0.5-0.225,0.5-0.5v-1.479c2.936-0.242,5.279-2.586,5.521-5.521H15.5C15.775,8.5,16,8.276,16,8  S15.775,7.5,15.5,7.5z M8,10.188c-1.206,0-2.188-0.98-2.188-2.188S6.794,5.813,8,5.813S10.188,6.794,10.188,8S9.206,10.188,8,10.188  z"/>
</svg>
