<?xml version="1.0" encoding="UTF-8" standalone="no"?>
<svg viewBox="0 0 50 50" version="1.2" xmlns="http://www.w3.org/2000/svg">
  <path d="M5.5,27.5h19v-15h-19V27.5z M8.5,24.5h2v-9h-2v-1h6v1h-2  v4h5v-4h-2v-1h6v1h-2v9h2v1h-6v-1h2v-4h-5v4h2v1h-6V24.5z M33.5,28.5c-1.1,0-2-0.9-2-2h2v-2h-2v-11c0-1.1,0.9-2,2-2c0.6,0,1-0.4,1-1  c0-0.6-0.4-1-1-1c-1.2,0-2.3,0.5-3,1.4c-0.7-0.8-1.8-1.4-3-1.4c-0.6,0-1,0.4-1,1c0,0.6,0.4,1,1,1c1.1,0,2,0.9,2,2v11h-2v2h2  c0,1.1-0.9,2-2,2c-0.6,0-1,0.4-1,1c0,0.6,0.4,1,1,1c1.2,0,2.3-0.5,3-1.4c0.7,0.8,1.8,1.4,3,1.4c0.6,0,1-0.4,1-1  C34.5,28.9,34.1,28.5,33.5,28.5z"/>
</svg>
