<?xml version="1.0" encoding="UTF-8" standalone="no"?>
<svg viewBox="0 0 100 100" version="1.2" xmlns="http://www.w3.org/2000/svg">
  <path d="M72.249,75.024c1.024-12.675,2.083-25.349,3.079-38.026c0.476-6.092-3.006-9.788-9.102-9.79     c-6.817-0.006-13.632-0.004-20.449-0.004c-7.006,0-14.016-0.02-21.022,0.008c-5.162,0.021-8.594,3.208-8.76,8.188     c-0.048,1.37,0.224,2.747,0.353,4.124c1.339,14.559,2.683,29.116,4.016,43.677c0.399,4.365,3.794,7.59,8.164,7.602     c11.676,0.023,23.356,0.027,35.032-0.006c4.343-0.01,7.707-3.183,8.069-7.511C71.863,80.534,72.025,77.775,72.249,75.024z      M34.699,49.352c0,2.907,0,5.813,0,8.716c0,5.808,0,11.62,0,17.43c0,0.662,0.006,1.321-0.199,1.978     c-0.605,1.954-2.263,3.169-4.151,3.004c-1.916-0.17-3.393-1.639-3.642-3.623c-0.046-0.376-0.06-0.762-0.06-1.14     c0.01-12.051,0.018-24.096,0.052-36.146c0.008-2.299,1.767-3.981,3.997-3.962c2.174,0.013,3.941,1.728,3.985,4.029     C34.744,42.876,34.699,46.115,34.699,49.352z M46.653,80.075c-1.524,0.683-2.982,0.495-4.267-0.597     c-1.003-0.854-1.408-1.971-1.4-3.293c0.019-6.047,0.006-12.097,0.006-18.144c0-6.05-0.016-12.097,0.006-18.146     c0.013-2.95,2.239-4.79,4.973-4.168c1.846,0.418,3.009,2.025,3.027,4.297c0.021,3.524,0.006,7.048,0.006,10.573     c0,8.524-0.004,17.049,0.004,25.575C49.007,77.953,48.313,79.326,46.653,80.075z M63.323,76.282     c-0.091,2.438-1.869,4.24-4.136,4.213c-2.174-0.028-3.871-1.844-3.881-4.282c-0.027-6.047-0.01-12.095-0.01-18.142     c0-6.048,0-12.095,0-18.143c0.002-1.705,0.668-3.071,2.203-3.879c1.438-0.752,2.872-0.592,4.174,0.345     c1.21,0.876,1.646,2.114,1.644,3.604c-0.022,11.333-0.013,22.666-0.01,33.999C63.308,74.761,63.356,75.521,63.323,76.282z M68.443,0.629c-4.294,1.055-8.57,2.188-12.84,3.351c-1.124,0.307-1.95,0.21-2.809-0.677     c-1.433-1.472-3.277-1.921-5.264-1.476c-2.178,0.49-4.339,1.057-6.493,1.657c-1.9,0.524-3.436,1.651-3.945,3.58     c-0.415,1.576-1.372,2.045-2.768,2.386c-4.944,1.202-9.871,2.479-14.79,3.775c-2.764,0.729-4.384,3.216-3.979,5.938     c0.363,2.411,2.635,4.296,5.22,4.276c0.762,0.068,1.533-0.202,2.314-0.399c10.409-2.676,20.814-5.359,31.221-8.044     c5.665-1.46,11.327-2.917,16.986-4.391c2.091-0.542,3.602-1.736,4.03-3.956C76.124,2.504,72.787-0.441,68.443,0.629z"/>
</svg>
