<?xml version="1.0" encoding="UTF-8" standalone="no"?>
<svg viewBox="0 0 100 100" version="1.2" xmlns="http://www.w3.org/2000/svg">
  <path d="M98.781,91.043c-1.983,2.575-5.675,3.054-8.247,1.074l-3.128-2.405l7.172-9.319l3.127,2.405   C100.279,84.777,100.759,88.471,98.781,91.043z M85.721,88.414L61.186,69.535c-6.686,6.288-15.472,9.813-24.861,9.813   c-8.071,0-15.726-2.607-22.138-7.541C6.492,65.888,1.565,57.326,0.312,47.7c-1.256-9.625,1.314-19.162,7.235-26.855   c6.933-9.013,17.44-14.182,28.824-14.182c8.071,0,15.727,2.608,22.14,7.542c14.294,10.999,18.126,30.616,9.843,46.008   l24.539,18.882L85.721,88.414z M59.019,60.449c9.617-12.501,7.272-30.496-5.227-40.114c-5.048-3.884-11.073-5.936-17.423-5.936   c-8.963,0-17.234,4.069-22.694,11.162c-4.657,6.056-6.682,13.563-5.694,21.141c0.987,7.576,4.866,14.315,10.922,18.974   c5.046,3.885,11.07,5.937,17.421,5.937C45.288,71.612,53.561,67.543,59.019,60.449z M15.766,48.796H56.93v-9.878H15.766V48.796z"/>
</svg>
