<?xml version="1.0" encoding="UTF-8" standalone="no"?>
<svg viewBox="0 0 100 100" version="1.2" xmlns="http://www.w3.org/2000/svg">
  <path d="M98.781,91.043c-1.983,2.575-5.675,3.055-8.247,1.074l-3.128-2.405l7.172-9.319l3.127,2.406   C100.279,84.777,100.759,88.471,98.781,91.043z M85.721,88.414L61.186,69.535c-6.686,6.288-15.472,9.813-24.862,9.813   c-8.071,0-15.726-2.607-22.137-7.541C6.492,65.888,1.565,57.326,0.312,47.7c-1.256-9.625,1.314-19.162,7.236-26.855   c6.933-9.013,17.44-14.183,28.824-14.183c8.071,0,15.726,2.609,22.14,7.542c14.294,10.999,18.126,30.616,9.843,46.007   l24.539,18.883L85.721,88.414z M59.019,60.449c9.617-12.501,7.272-30.496-5.227-40.114c-5.048-3.884-11.073-5.936-17.423-5.936   c-8.963,0-17.234,4.068-22.694,11.162c-4.657,6.056-6.682,13.563-5.694,21.141c0.987,7.576,4.866,14.315,10.922,18.974   c5.046,3.885,11.07,5.936,17.422,5.936C45.288,71.611,53.561,67.543,59.019,60.449z M56.93,38.918H41.287V23.275h-9.878v15.643   H15.766v9.878h15.642v15.643h9.878V48.796H56.93V38.918z"/>
</svg>
