<svg xmlns="http://www.w3.org/2000/svg" viewBox="0 0 16 16">
    <path d="M 4 0 A 2 2 0 0 0 2 2 L 2 8 L 0.44921875 8 C 0.20049298 8 0 8.4819317 0 9.0800781 L 0 9.4199219 C 0 10.018068 0.20049298 10.5 0.44921875 10.5 L 2 10.5 L 2 14 A 2 2 0 0 0 4 16 L 12 16 A 2 2 0 0 0 14 14 L 14 10.5 L 15.701172 10.5 C 15.866989 10.5 16 9.9424993 16 9.25 C 16 8.5575007 15.866989 8 15.701172 8 L 14 8 L 14 4.5 L 9.5 0 L 4 0 z M 4 1 L 9.5 1 L 9.5 3 A 1.5 1.5 0 0 0 11 4.5 L 13 4.5 L 13 8 L 12.298828 8 C 12.133011 8 12 8.5575007 12 9.25 C 12 9.9424993 12.133011 10.5 12.298828 10.5 L 13 10.5 L 13 14 A 1 1 0 0 1 12 15 L 4 15 A 1 1 0 0 1 3 14 L 3 10.5 L 3.5507812 10.5 C 3.799507 10.5 4 10.018068 4 9.4199219 L 4 9.0800781 C 4 8.4819317 3.799507 8 3.5507812 8 L 3 8 L 3 2 A 1 1 0 0 1 4 1 z M 4.7695312 8 C 4.6202958 8 4.5 8.5290448 4.5 9.1855469 L 4.5 9.3144531 C 4.5 9.9709552 4.6202958 10.5 4.7695312 10.5 L 7.2304688 10.5 C 7.3797042 10.5 7.5 9.9709552 7.5 9.3144531 L 7.5 9.1855469 C 7.5 8.5290448 7.3797042 8 7.2304688 8 L 4.7695312 8 z M 8.7695312 8 C 8.6202958 8 8.5 8.5290448 8.5 9.1855469 L 8.5 9.3144531 C 8.5 9.9709552 8.6202958 10.5 8.7695312 10.5 L 11.230469 10.5 C 11.379704 10.5 11.5 9.9709552 11.5 9.3144531 L 11.5 9.1855469 C 11.5 8.5290448 11.379704 8 11.230469 8 L 8.7695312 8 z "/>
</svg>